<svg xmlns="http://www.w3.org/2000/svg" viewBox="0 0 80.19 80.36"><defs><style>.cls-1{fill:#f9f9f9;}.cls-2{fill:none;}</style></defs><g id="Layer_2" data-name="Layer 2"><g id="Layer_1-2" data-name="Layer 1"><path class="cls-1" d="M55.86,80.36H23.14L0,57.22V24.5L23.14,1.36H55.86L79,24.49V57.22Zm-31.48-3H54.62L76,56V25.74L54.62,4.36H24.38L3,25.74V56Z"/><path class="cls-2" d="M39.26,12.5c-37.58.67-37.57,56.52,0,57.19C76.84,69,76.84,13.17,39.26,12.5Z"/><path class="cls-1" d="M39.26,8.91C-3,9.67-3,72.52,39.26,73.28,81.55,72.52,81.56,9.67,39.26,8.91Zm0,60.78C1.69,69,1.68,13.17,39.26,12.5,76.84,13.17,76.84,69,39.26,69.69Z"/><path class="cls-1" d="M74.36,12c-7.79.11-7.79-12.11,0-12C82.14-.11,82.14,12.11,74.36,12Zm0-9c-3.9,0-3.9,6.06,0,6S78.25,3,74.36,3Z"/></g></g></svg>